<svg xmlns="http://www.w3.org/2000/svg" xmlns:xlink="http://www.w3.org/1999/xlink" width="180" zoomAndPan="magnify" viewBox="0 0 135 30.000001" height="40" preserveAspectRatio="xMidYMid meet" version="1.0"><defs><g/><clipPath id="5a0ff46232"><path d="M 5 5.140625 L 14 5.140625 L 14 24.011719 L 5 24.011719 Z M 5 5.140625 " clip-rule="nonzero"/></clipPath><clipPath id="c70c21e472"><path d="M 5 9 L 10 9 L 10 24.011719 L 5 24.011719 Z M 5 9 " clip-rule="nonzero"/></clipPath><clipPath id="4b9259de55"><path d="M 5 5.140625 L 13 5.140625 L 13 10 L 5 10 Z M 5 5.140625 " clip-rule="nonzero"/></clipPath><clipPath id="ef9bc4f5e5"><path d="M 9 5.140625 L 13 5.140625 L 13 10 L 9 10 Z M 9 5.140625 " clip-rule="nonzero"/></clipPath></defs><g clip-path="url(#5a0ff46232)"><path fill="#005fe4" d="M 5.898438 5.140625 C 8.234375 5.140625 10.570312 5.140625 12.976562 5.140625 C 12.894531 5.515625 12.894531 5.515625 12.84375 5.660156 C 12.828125 5.710938 12.828125 5.710938 12.808594 5.761719 C 12.796875 5.796875 12.785156 5.832031 12.773438 5.871094 C 12.757812 5.910156 12.746094 5.945312 12.734375 5.984375 C 12.707031 6.070312 12.675781 6.152344 12.648438 6.234375 C 12.605469 6.367188 12.558594 6.496094 12.515625 6.628906 C 12.390625 7 12.265625 7.371094 12.140625 7.746094 C 12.0625 7.972656 11.984375 8.203125 11.90625 8.429688 C 11.878906 8.515625 11.847656 8.605469 11.820312 8.691406 C 11.777344 8.8125 11.738281 8.933594 11.695312 9.054688 C 11.679688 9.109375 11.679688 9.109375 11.660156 9.164062 C 11.648438 9.195312 11.636719 9.230469 11.625 9.265625 C 11.609375 9.308594 11.609375 9.308594 11.597656 9.351562 C 11.542969 9.621094 11.585938 9.890625 11.625 10.15625 C 11.632812 10.195312 11.636719 10.230469 11.640625 10.265625 C 11.660156 10.386719 11.679688 10.507812 11.695312 10.628906 C 11.710938 10.714844 11.722656 10.800781 11.734375 10.886719 C 11.769531 11.097656 11.800781 11.308594 11.832031 11.519531 C 11.867188 11.765625 11.90625 12.015625 11.945312 12.261719 C 12.011719 12.703125 12.078125 13.148438 12.144531 13.589844 C 12.207031 14.015625 12.273438 14.441406 12.335938 14.867188 C 12.34375 14.90625 12.34375 14.90625 12.347656 14.945312 C 12.363281 15.050781 12.382812 15.15625 12.398438 15.261719 C 12.519531 16.074219 12.640625 16.886719 12.765625 17.699219 C 12.785156 17.828125 12.804688 17.960938 12.824219 18.09375 C 12.886719 18.515625 12.953125 18.933594 13.015625 19.355469 C 13.035156 19.472656 13.054688 19.589844 13.070312 19.707031 C 13.089844 19.816406 13.105469 19.925781 13.121094 20.035156 C 13.132812 20.101562 13.140625 20.167969 13.152344 20.234375 C 13.160156 20.277344 13.160156 20.277344 13.167969 20.320312 C 13.222656 20.695312 13.222656 20.695312 13.152344 20.796875 C 13.128906 20.816406 13.109375 20.835938 13.085938 20.855469 C 13.0625 20.878906 13.039062 20.898438 13.015625 20.921875 C 12.988281 20.945312 12.964844 20.964844 12.941406 20.988281 C 12.917969 21.007812 12.894531 21.03125 12.871094 21.050781 C 12.820312 21.09375 12.773438 21.136719 12.722656 21.179688 C 12.636719 21.253906 12.546875 21.335938 12.460938 21.414062 C 12.351562 21.511719 12.242188 21.609375 12.132812 21.707031 C 12.011719 21.808594 11.894531 21.914062 11.777344 22.019531 C 11.640625 22.148438 11.496094 22.273438 11.355469 22.398438 C 11.207031 22.527344 11.058594 22.664062 10.914062 22.796875 C 10.71875 22.972656 10.523438 23.144531 10.324219 23.316406 C 10.238281 23.394531 10.152344 23.472656 10.066406 23.550781 C 10.035156 23.578125 10.003906 23.605469 9.972656 23.636719 C 9.914062 23.6875 9.855469 23.742188 9.796875 23.792969 C 9.769531 23.816406 9.746094 23.839844 9.71875 23.863281 C 9.6875 23.894531 9.6875 23.894531 9.652344 23.925781 C 9.574219 23.980469 9.535156 24.007812 9.4375 24.011719 C 9.351562 23.957031 9.351562 23.957031 9.253906 23.875 C 9.21875 23.84375 9.183594 23.8125 9.144531 23.78125 C 9.015625 23.664062 8.882812 23.542969 8.753906 23.425781 C 8.636719 23.316406 8.515625 23.210938 8.390625 23.109375 C 8.214844 22.96875 8.050781 22.820312 7.882812 22.664062 C 7.730469 22.519531 7.566406 22.386719 7.402344 22.253906 C 7.289062 22.160156 7.183594 22.0625 7.078125 21.964844 C 6.941406 21.835938 6.800781 21.714844 6.65625 21.597656 C 6.488281 21.460938 6.328125 21.320312 6.167969 21.171875 C 6.039062 21.050781 5.90625 20.9375 5.769531 20.828125 C 5.695312 20.746094 5.691406 20.691406 5.679688 20.582031 C 5.6875 20.480469 5.699219 20.378906 5.71875 20.273438 C 5.722656 20.242188 5.726562 20.214844 5.730469 20.179688 C 5.746094 20.078125 5.761719 19.972656 5.777344 19.867188 C 5.789062 19.792969 5.800781 19.71875 5.8125 19.644531 C 5.84375 19.441406 5.875 19.234375 5.90625 19.03125 C 5.9375 18.816406 5.972656 18.597656 6.003906 18.382812 C 6.066406 17.96875 6.128906 17.554688 6.191406 17.140625 C 6.253906 16.730469 6.320312 16.316406 6.382812 15.902344 C 6.410156 15.722656 6.433594 15.542969 6.460938 15.363281 C 6.523438 14.960938 6.585938 14.558594 6.644531 14.15625 C 6.675781 13.9375 6.707031 13.71875 6.742188 13.5 C 6.746094 13.457031 6.753906 13.414062 6.761719 13.371094 C 6.839844 12.835938 6.933594 12.304688 7.039062 11.773438 C 7.367188 10.117188 7.339844 8.941406 6.703125 7.367188 C 6.617188 7.15625 6.539062 6.9375 6.457031 6.722656 C 6.308594 6.3125 6.15625 5.910156 5.996094 5.503906 C 5.984375 5.472656 5.96875 5.441406 5.957031 5.410156 C 5.941406 5.367188 5.941406 5.367188 5.921875 5.324219 C 5.898438 5.25 5.898438 5.25 5.898438 5.140625 Z M 5.898438 5.140625 " fill-opacity="1" fill-rule="nonzero"/></g><g clip-path="url(#c70c21e472)"><path fill="#0081fe" d="M 7.375 9.5625 C 8.078125 9.5625 8.785156 9.5625 9.511719 9.5625 C 9.523438 14.332031 9.535156 19.097656 9.546875 24.011719 C 9.351562 23.972656 9.277344 23.90625 9.136719 23.773438 C 9.097656 23.730469 9.054688 23.691406 9.011719 23.648438 C 8.980469 23.621094 8.980469 23.621094 8.945312 23.589844 C 8.863281 23.511719 8.773438 23.4375 8.683594 23.367188 C 8.527344 23.242188 8.382812 23.113281 8.242188 22.980469 C 8.066406 22.816406 7.882812 22.660156 7.695312 22.511719 C 7.566406 22.402344 7.441406 22.289062 7.316406 22.171875 C 7.199219 22.0625 7.078125 21.957031 6.953125 21.859375 C 6.777344 21.714844 6.613281 21.566406 6.445312 21.410156 C 6.289062 21.261719 6.125 21.125 5.953125 20.992188 C 5.921875 20.964844 5.894531 20.941406 5.863281 20.914062 C 5.832031 20.890625 5.796875 20.863281 5.765625 20.835938 C 5.679688 20.730469 5.679688 20.730469 5.671875 20.597656 C 5.679688 20.546875 5.6875 20.492188 5.695312 20.441406 C 5.699219 20.414062 5.703125 20.382812 5.707031 20.355469 C 5.71875 20.289062 5.726562 20.226562 5.738281 20.164062 C 5.753906 20.066406 5.765625 19.96875 5.78125 19.871094 C 5.8125 19.652344 5.84375 19.433594 5.878906 19.214844 C 5.890625 19.128906 5.902344 19.046875 5.917969 18.960938 C 5.949219 18.738281 5.984375 18.511719 6.019531 18.285156 C 6.054688 18.046875 6.089844 17.808594 6.128906 17.570312 C 6.1875 17.167969 6.25 16.765625 6.3125 16.363281 C 6.371094 15.953125 6.433594 15.542969 6.496094 15.136719 C 6.5 15.109375 6.503906 15.085938 6.507812 15.058594 C 6.523438 14.957031 6.539062 14.855469 6.554688 14.757812 C 6.652344 14.105469 6.75 13.457031 6.847656 12.808594 C 6.855469 12.765625 6.863281 12.71875 6.871094 12.675781 C 6.902344 12.460938 6.933594 12.246094 6.96875 12.03125 C 7.023438 11.660156 7.082031 11.289062 7.136719 10.917969 C 7.160156 10.757812 7.183594 10.59375 7.207031 10.433594 C 7.21875 10.359375 7.230469 10.285156 7.242188 10.210938 C 7.257812 10.105469 7.273438 10.003906 7.289062 9.902344 C 7.292969 9.871094 7.296875 9.839844 7.300781 9.808594 C 7.332031 9.605469 7.332031 9.605469 7.375 9.5625 Z M 7.375 9.5625 " fill-opacity="1" fill-rule="nonzero"/></g><g clip-path="url(#4b9259de55)"><path fill="#005fe4" d="M 5.898438 5.140625 C 8.234375 5.140625 10.570312 5.140625 12.976562 5.140625 C 12.894531 5.515625 12.894531 5.515625 12.84375 5.664062 C 12.828125 5.714844 12.828125 5.714844 12.808594 5.765625 C 12.796875 5.800781 12.785156 5.835938 12.773438 5.875 C 12.753906 5.929688 12.753906 5.929688 12.734375 5.992188 C 12.691406 6.117188 12.648438 6.246094 12.609375 6.371094 C 12.578125 6.460938 12.550781 6.546875 12.519531 6.636719 C 12.457031 6.820312 12.394531 7.007812 12.335938 7.191406 C 12.261719 7.40625 12.191406 7.621094 12.121094 7.832031 C 12.050781 8.039062 11.984375 8.246094 11.914062 8.453125 C 11.886719 8.539062 11.855469 8.625 11.828125 8.714844 C 11.785156 8.835938 11.746094 8.957031 11.703125 9.082031 C 11.691406 9.117188 11.679688 9.152344 11.667969 9.191406 C 11.652344 9.238281 11.652344 9.238281 11.632812 9.289062 C 11.625 9.320312 11.617188 9.347656 11.605469 9.378906 C 11.574219 9.453125 11.574219 9.453125 11.503906 9.5625 C 11.429688 9.578125 11.429688 9.578125 11.335938 9.578125 C 11.28125 9.578125 11.28125 9.578125 11.230469 9.578125 C 11.191406 9.578125 11.152344 9.578125 11.113281 9.574219 C 11.050781 9.574219 11.050781 9.574219 10.988281 9.574219 C 10.851562 9.574219 10.71875 9.574219 10.582031 9.574219 C 10.492188 9.574219 10.398438 9.574219 10.304688 9.574219 C 10.082031 9.574219 9.863281 9.574219 9.640625 9.570312 C 9.390625 9.570312 9.140625 9.570312 8.886719 9.570312 C 8.371094 9.566406 7.855469 9.566406 7.335938 9.5625 C 7.148438 9.003906 6.960938 8.441406 6.773438 7.882812 C 6.6875 7.621094 6.601562 7.363281 6.515625 7.101562 C 6.4375 6.875 6.363281 6.648438 6.285156 6.421875 C 6.246094 6.300781 6.207031 6.179688 6.164062 6.0625 C 6.121094 5.925781 6.078125 5.792969 6.03125 5.660156 C 6.019531 5.621094 6.003906 5.578125 5.992188 5.539062 C 5.980469 5.503906 5.96875 5.464844 5.953125 5.429688 C 5.945312 5.394531 5.933594 5.363281 5.921875 5.332031 C 5.898438 5.25 5.898438 5.25 5.898438 5.140625 Z M 5.898438 5.140625 " fill-opacity="1" fill-rule="nonzero"/></g><g clip-path="url(#ef9bc4f5e5)"><path fill="#00317e" d="M 9.511719 5.140625 C 10.65625 5.140625 11.796875 5.140625 12.976562 5.140625 C 12.894531 5.515625 12.894531 5.515625 12.84375 5.664062 C 12.828125 5.714844 12.828125 5.714844 12.808594 5.765625 C 12.796875 5.800781 12.785156 5.835938 12.773438 5.875 C 12.753906 5.929688 12.753906 5.929688 12.734375 5.992188 C 12.691406 6.117188 12.648438 6.246094 12.609375 6.371094 C 12.578125 6.460938 12.550781 6.546875 12.519531 6.636719 C 12.457031 6.820312 12.394531 7.007812 12.335938 7.191406 C 12.261719 7.40625 12.191406 7.621094 12.121094 7.832031 C 12.050781 8.039062 11.984375 8.246094 11.914062 8.453125 C 11.886719 8.539062 11.855469 8.625 11.828125 8.714844 C 11.785156 8.835938 11.746094 8.957031 11.703125 9.082031 C 11.691406 9.117188 11.679688 9.152344 11.667969 9.191406 C 11.65625 9.222656 11.644531 9.257812 11.632812 9.289062 C 11.625 9.320312 11.617188 9.347656 11.605469 9.378906 C 11.574219 9.453125 11.574219 9.453125 11.503906 9.5625 C 10.84375 9.5625 10.1875 9.5625 9.511719 9.5625 C 9.511719 8.105469 9.511719 6.644531 9.511719 5.140625 Z M 9.511719 5.140625 " fill-opacity="1" fill-rule="nonzero"/></g><g fill="#000000" fill-opacity="1"><g transform="translate(18.848284, 18.834093)"><g><path d="M 0.984375 0 L 0.984375 -11.015625 L 4.84375 -11.015625 C 6.175781 -11.015625 7.1875 -10.753906 7.875 -10.234375 C 8.570312 -9.722656 8.921875 -8.972656 8.921875 -7.984375 C 8.921875 -7.453125 8.78125 -6.976562 8.5 -6.5625 C 8.21875 -6.15625 7.832031 -5.851562 7.34375 -5.65625 C 7.90625 -5.519531 8.347656 -5.238281 8.671875 -4.8125 C 8.992188 -4.382812 9.15625 -3.859375 9.15625 -3.234375 C 9.15625 -2.171875 8.816406 -1.367188 8.140625 -0.828125 C 7.472656 -0.285156 6.515625 -0.0078125 5.265625 0 Z M 3.25 -4.796875 L 3.25 -1.828125 L 5.1875 -1.828125 C 5.726562 -1.828125 6.144531 -1.953125 6.4375 -2.203125 C 6.738281 -2.453125 6.890625 -2.804688 6.890625 -3.265625 C 6.890625 -4.265625 6.367188 -4.773438 5.328125 -4.796875 Z M 3.25 -6.390625 L 4.921875 -6.390625 C 6.066406 -6.410156 6.640625 -6.867188 6.640625 -7.765625 C 6.640625 -8.265625 6.492188 -8.625 6.203125 -8.84375 C 5.921875 -9.0625 5.46875 -9.171875 4.84375 -9.171875 L 3.25 -9.171875 Z M 3.25 -6.390625 "/></g></g></g><g fill="#000000" fill-opacity="1"><g transform="translate(28.727429, 18.834093)"><g><path d="M 9.3125 -11.015625 L 9.3125 -3.75 C 9.3125 -2.550781 8.929688 -1.597656 8.171875 -0.890625 C 7.421875 -0.191406 6.394531 0.15625 5.09375 0.15625 C 3.8125 0.15625 2.789062 -0.179688 2.03125 -0.859375 C 1.28125 -1.546875 0.894531 -2.484375 0.875 -3.671875 L 0.875 -11.015625 L 3.140625 -11.015625 L 3.140625 -3.75 C 3.140625 -3.019531 3.3125 -2.488281 3.65625 -2.15625 C 4.007812 -1.832031 4.488281 -1.671875 5.09375 -1.671875 C 6.375 -1.671875 7.019531 -2.34375 7.03125 -3.6875 L 7.03125 -11.015625 Z M 9.3125 -11.015625 "/></g></g></g><g fill="#000000" fill-opacity="1"><g transform="translate(38.916473, 18.834093)"><g><path d="M 0.984375 0 L 0.984375 -11.015625 L 4.84375 -11.015625 C 6.175781 -11.015625 7.1875 -10.753906 7.875 -10.234375 C 8.570312 -9.722656 8.921875 -8.972656 8.921875 -7.984375 C 8.921875 -7.453125 8.78125 -6.976562 8.5 -6.5625 C 8.21875 -6.15625 7.832031 -5.851562 7.34375 -5.65625 C 7.90625 -5.519531 8.347656 -5.238281 8.671875 -4.8125 C 8.992188 -4.382812 9.15625 -3.859375 9.15625 -3.234375 C 9.15625 -2.171875 8.816406 -1.367188 8.140625 -0.828125 C 7.472656 -0.285156 6.515625 -0.0078125 5.265625 0 Z M 3.25 -4.796875 L 3.25 -1.828125 L 5.1875 -1.828125 C 5.726562 -1.828125 6.144531 -1.953125 6.4375 -2.203125 C 6.738281 -2.453125 6.890625 -2.804688 6.890625 -3.265625 C 6.890625 -4.265625 6.367188 -4.773438 5.328125 -4.796875 Z M 3.25 -6.390625 L 4.921875 -6.390625 C 6.066406 -6.410156 6.640625 -6.867188 6.640625 -7.765625 C 6.640625 -8.265625 6.492188 -8.625 6.203125 -8.84375 C 5.921875 -9.0625 5.46875 -9.171875 4.84375 -9.171875 L 3.25 -9.171875 Z M 3.25 -6.390625 "/></g></g></g><g fill="#000000" fill-opacity="1"><g transform="translate(48.591519, 18.834093)"><g><path d="M 9.265625 -9.171875 L 5.890625 -9.171875 L 5.890625 0 L 3.625 0 L 3.625 -9.171875 L 0.296875 -9.171875 L 0.296875 -11.015625 L 9.265625 -11.015625 Z M 9.265625 -9.171875 "/></g></g></g><g fill="#000000" fill-opacity="1"><g transform="translate(57.714756, 18.834093)"><g/></g></g><g fill="#000000" fill-opacity="1"><g transform="translate(61.580139, 18.834093)"><g><path d="M 5.890625 -11.015625 L 7.34375 -11.015625 L 7.34375 -3.21875 C 7.34375 -2.164062 7.023438 -1.335938 6.390625 -0.734375 C 5.765625 -0.140625 4.925781 0.15625 3.875 0.15625 C 2.78125 0.15625 1.925781 -0.125 1.3125 -0.6875 C 0.707031 -1.25 0.40625 -2.035156 0.40625 -3.046875 L 1.859375 -3.046875 C 1.859375 -2.410156 2.03125 -1.914062 2.375 -1.5625 C 2.71875 -1.207031 3.21875 -1.03125 3.875 -1.03125 C 4.46875 -1.03125 4.945312 -1.21875 5.3125 -1.59375 C 5.6875 -1.976562 5.878906 -2.507812 5.890625 -3.1875 Z M 5.890625 -11.015625 "/></g></g></g><g fill="#000000" fill-opacity="1"><g transform="translate(70.121399, 18.834093)"><g><path d="M 0.6875 -4.171875 C 0.6875 -4.972656 0.84375 -5.691406 1.15625 -6.328125 C 1.476562 -6.960938 1.914062 -7.453125 2.46875 -7.796875 C 3.03125 -8.148438 3.675781 -8.328125 4.40625 -8.328125 C 5.519531 -8.328125 6.421875 -7.941406 7.109375 -7.171875 C 7.796875 -6.398438 8.140625 -5.375 8.140625 -4.09375 L 8.140625 -4 C 8.140625 -3.207031 7.984375 -2.492188 7.671875 -1.859375 C 7.367188 -1.222656 6.929688 -0.726562 6.359375 -0.375 C 5.796875 -0.0195312 5.148438 0.15625 4.421875 0.15625 C 3.304688 0.15625 2.40625 -0.226562 1.71875 -1 C 1.03125 -1.769531 0.6875 -2.789062 0.6875 -4.0625 Z M 2.09375 -4 C 2.09375 -3.09375 2.300781 -2.363281 2.71875 -1.8125 C 3.144531 -1.257812 3.710938 -0.984375 4.421875 -0.984375 C 5.128906 -0.984375 5.691406 -1.257812 6.109375 -1.8125 C 6.523438 -2.375 6.734375 -3.160156 6.734375 -4.171875 C 6.734375 -5.066406 6.519531 -5.789062 6.09375 -6.34375 C 5.664062 -6.90625 5.101562 -7.1875 4.40625 -7.1875 C 3.707031 -7.1875 3.144531 -6.910156 2.71875 -6.359375 C 2.300781 -5.804688 2.09375 -5.019531 2.09375 -4 Z M 2.09375 -4 "/></g></g></g><g fill="#000000" fill-opacity="1"><g transform="translate(78.949889, 18.834093)"><g><path d="M 7.984375 -4 C 7.984375 -2.75 7.695312 -1.742188 7.125 -0.984375 C 6.550781 -0.222656 5.78125 0.15625 4.8125 0.15625 C 3.78125 0.15625 2.976562 -0.207031 2.40625 -0.9375 L 2.34375 0 L 1.0625 0 L 1.0625 -11.609375 L 2.453125 -11.609375 L 2.453125 -7.28125 C 3.015625 -7.976562 3.789062 -8.328125 4.78125 -8.328125 C 5.78125 -8.328125 6.5625 -7.953125 7.125 -7.203125 C 7.695312 -6.453125 7.984375 -5.425781 7.984375 -4.125 Z M 6.578125 -4.15625 C 6.578125 -5.113281 6.394531 -5.847656 6.03125 -6.359375 C 5.664062 -6.878906 5.140625 -7.140625 4.453125 -7.140625 C 3.523438 -7.140625 2.859375 -6.710938 2.453125 -5.859375 L 2.453125 -2.328125 C 2.878906 -1.460938 3.546875 -1.03125 4.453125 -1.03125 C 5.128906 -1.03125 5.648438 -1.289062 6.015625 -1.8125 C 6.390625 -2.332031 6.578125 -3.113281 6.578125 -4.15625 Z M 6.578125 -4.15625 "/></g></g></g><g fill="#000000" fill-opacity="1"><g transform="translate(87.634769, 18.834093)"><g/></g></g><g fill="#000000" fill-opacity="1"><g transform="translate(91.467004, 18.834093)"><g><path d="M 2.734375 -4.3125 L 2.734375 0 L 1.28125 0 L 1.28125 -11.015625 L 5.34375 -11.015625 C 6.539062 -11.015625 7.476562 -10.703125 8.15625 -10.078125 C 8.84375 -9.460938 9.1875 -8.648438 9.1875 -7.640625 C 9.1875 -6.578125 8.851562 -5.753906 8.1875 -5.171875 C 7.519531 -4.597656 6.566406 -4.3125 5.328125 -4.3125 Z M 2.734375 -5.5 L 5.34375 -5.5 C 6.113281 -5.5 6.707031 -5.679688 7.125 -6.046875 C 7.539062 -6.410156 7.75 -6.9375 7.75 -7.625 C 7.75 -8.28125 7.539062 -8.804688 7.125 -9.203125 C 6.707031 -9.597656 6.140625 -9.800781 5.421875 -9.8125 L 2.734375 -9.8125 Z M 2.734375 -5.5 "/></g></g></g><g fill="#000000" fill-opacity="1"><g transform="translate(101.134497, 18.834093)"><g><path d="M 0.6875 -4.171875 C 0.6875 -4.972656 0.84375 -5.691406 1.15625 -6.328125 C 1.476562 -6.960938 1.914062 -7.453125 2.46875 -7.796875 C 3.03125 -8.148438 3.675781 -8.328125 4.40625 -8.328125 C 5.519531 -8.328125 6.421875 -7.941406 7.109375 -7.171875 C 7.796875 -6.398438 8.140625 -5.375 8.140625 -4.09375 L 8.140625 -4 C 8.140625 -3.207031 7.984375 -2.492188 7.671875 -1.859375 C 7.367188 -1.222656 6.929688 -0.726562 6.359375 -0.375 C 5.796875 -0.0195312 5.148438 0.15625 4.421875 0.15625 C 3.304688 0.15625 2.40625 -0.226562 1.71875 -1 C 1.03125 -1.769531 0.6875 -2.789062 0.6875 -4.0625 Z M 2.09375 -4 C 2.09375 -3.09375 2.300781 -2.363281 2.71875 -1.8125 C 3.144531 -1.257812 3.710938 -0.984375 4.421875 -0.984375 C 5.128906 -0.984375 5.691406 -1.257812 6.109375 -1.8125 C 6.523438 -2.375 6.734375 -3.160156 6.734375 -4.171875 C 6.734375 -5.066406 6.519531 -5.789062 6.09375 -6.34375 C 5.664062 -6.90625 5.101562 -7.1875 4.40625 -7.1875 C 3.707031 -7.1875 3.144531 -6.910156 2.71875 -6.359375 C 2.300781 -5.804688 2.09375 -5.019531 2.09375 -4 Z M 2.09375 -4 "/></g></g></g><g fill="#000000" fill-opacity="1"><g transform="translate(109.962986, 18.834093)"><g><path d="M 5.015625 -6.921875 C 4.796875 -6.960938 4.566406 -6.984375 4.328125 -6.984375 C 3.410156 -6.984375 2.785156 -6.59375 2.453125 -5.8125 L 2.453125 0 L 1.0625 0 L 1.0625 -8.1875 L 2.421875 -8.1875 L 2.4375 -7.234375 C 2.894531 -7.960938 3.546875 -8.328125 4.390625 -8.328125 C 4.660156 -8.328125 4.867188 -8.289062 5.015625 -8.21875 Z M 5.015625 -6.921875 "/></g></g></g><g fill="#000000" fill-opacity="1"><g transform="translate(115.579093, 18.834093)"><g><path d="M 2.953125 -10.15625 L 2.953125 -8.1875 L 4.484375 -8.1875 L 4.484375 -7.09375 L 2.953125 -7.09375 L 2.953125 -2.03125 C 2.953125 -1.695312 3.019531 -1.445312 3.15625 -1.28125 C 3.289062 -1.125 3.523438 -1.046875 3.859375 -1.046875 C 4.015625 -1.046875 4.234375 -1.078125 4.515625 -1.140625 L 4.515625 0 C 4.148438 0.101562 3.796875 0.15625 3.453125 0.15625 C 2.828125 0.15625 2.351562 -0.03125 2.03125 -0.40625 C 1.71875 -0.789062 1.5625 -1.332031 1.5625 -2.03125 L 1.5625 -7.09375 L 0.0625 -7.09375 L 0.0625 -8.1875 L 1.5625 -8.1875 L 1.5625 -10.15625 Z M 2.953125 -10.15625 "/></g></g></g><g fill="#000000" fill-opacity="1"><g transform="translate(120.635827, 18.834093)"><g><path d="M 6.109375 0 C 6.023438 -0.15625 5.957031 -0.441406 5.90625 -0.859375 C 5.257812 -0.179688 4.484375 0.15625 3.578125 0.15625 C 2.773438 0.15625 2.113281 -0.0703125 1.59375 -0.53125 C 1.082031 -0.988281 0.828125 -1.566406 0.828125 -2.265625 C 0.828125 -3.117188 1.148438 -3.78125 1.796875 -4.25 C 2.441406 -4.71875 3.351562 -4.953125 4.53125 -4.953125 L 5.890625 -4.953125 L 5.890625 -5.609375 C 5.890625 -6.085938 5.742188 -6.472656 5.453125 -6.765625 C 5.160156 -7.054688 4.726562 -7.203125 4.15625 -7.203125 C 3.65625 -7.203125 3.234375 -7.078125 2.890625 -6.828125 C 2.554688 -6.578125 2.390625 -6.269531 2.390625 -5.90625 L 0.984375 -5.90625 C 0.984375 -6.320312 1.128906 -6.71875 1.421875 -7.09375 C 1.710938 -7.476562 2.101562 -7.78125 2.59375 -8 C 3.09375 -8.21875 3.640625 -8.328125 4.234375 -8.328125 C 5.179688 -8.328125 5.921875 -8.09375 6.453125 -7.625 C 6.992188 -7.15625 7.269531 -6.503906 7.28125 -5.671875 L 7.28125 -1.90625 C 7.28125 -1.15625 7.378906 -0.5625 7.578125 -0.125 L 7.578125 0 Z M 3.78125 -1.0625 C 4.226562 -1.0625 4.644531 -1.175781 5.03125 -1.40625 C 5.425781 -1.632812 5.710938 -1.929688 5.890625 -2.296875 L 5.890625 -3.96875 L 4.796875 -3.96875 C 3.078125 -3.96875 2.21875 -3.46875 2.21875 -2.46875 C 2.21875 -2.03125 2.363281 -1.6875 2.65625 -1.4375 C 2.945312 -1.1875 3.320312 -1.0625 3.78125 -1.0625 Z M 3.78125 -1.0625 "/></g></g></g><g fill="#000000" fill-opacity="1"><g transform="translate(129.05615, 18.834093)"><g><path d="M 2.578125 0 L 1.171875 0 L 1.171875 -11.609375 L 2.578125 -11.609375 Z M 2.578125 0 "/></g></g></g></svg>