<?xml version="1.0" encoding="UTF-8"?>
<svg version="1.1" xmlns="http://www.w3.org/2000/svg" width="512" height="512">
<path d="M0 0 C63.36 0 126.72 0 192 0 C189.75024703 10.12388836 189.75024703 10.12388836 188.39279175 14.12182617 C187.93430344 15.48396744 187.93430344 15.48396744 187.46655273 16.87362671 C187.1371167 17.83700958 186.80768066 18.80039246 186.46826172 19.79296875 C186.11684113 20.83321198 185.76542053 21.8734552 185.40335083 22.94522095 C184.64463674 25.19000712 183.88395103 27.43412769 183.12148666 29.67764282 C181.91434271 33.23269052 180.71451935 36.79012981 179.51687622 40.34838867 C176.11272961 50.46033146 172.70136897 60.56977629 169.27099609 70.67285156 C167.16869656 76.86478499 165.08077302 83.06146773 163.0006752 89.26089478 C162.20746285 91.61641827 161.4092608 93.97026776 160.6059227 96.32235718 C159.48242872 99.61318296 158.37590478 102.9092749 157.27294922 106.20703125 C156.77272247 107.65210556 156.77272247 107.65210556 156.26239014 109.12637329 C155.96237091 110.03446747 155.66235168 110.94256165 155.35324097 111.87817383 C154.95892285 113.04283928 154.95892285 113.04283928 154.55663872 114.23103333 C153.08841512 121.53462554 154.23134911 128.83321797 155.3575592 136.11186218 C155.50371168 137.09164986 155.64986416 138.07143754 155.8004455 139.08091575 C156.28915354 142.34618125 156.78727419 145.60993835 157.28540039 148.8737793 C157.63913783 151.22400012 157.9922924 153.57430873 158.34490967 155.92469788 C159.20457664 161.6447053 160.0703277 167.36376774 160.93877948 173.08244743 C161.95668922 179.78751409 162.96706206 186.49371009 163.97704368 193.19997475 C165.78734731 205.2189858 167.60360708 217.23708889 169.42358398 229.25463867 C171.17352605 240.80982144 172.9206398 252.36542575 174.66381836 263.92163086 C174.82365988 264.98127264 174.82365988 264.98127264 174.98673052 266.06232133 C175.41559044 268.90545994 175.84442725 271.74860203 176.27323413 274.59174864 C179.59688122 296.62868725 182.9239514 318.66510782 186.25842273 340.70041144 C186.80087662 344.28599954 187.34283783 347.87166185 187.88475132 351.45733166 C189.60889248 362.85861297 191.34464833 374.25795886 193.10177612 385.65420532 C193.594358 388.85764273 194.08670013 392.06111691 194.57898223 395.2646004 C195.03595289 398.22980653 195.49699424 401.19436035 195.95821476 404.15890789 C196.23145129 405.93519781 196.50450077 407.71151651 196.77732849 409.48786926 C196.96514643 410.68191681 196.96514643 410.68191681 197.15675867 411.90008652 C198.69801653 422.00968905 198.69801653 422.00968905 196.75 424.7734375 C196.1725 425.30195313 195.595 425.83046875 195 426.375 C194.35675781 426.973125 193.71351563 427.57125 193.05078125 428.1875 C192.37402344 428.785625 191.69726562 429.38375 191 430 C190.37480469 430.556875 189.74960937 431.11375 189.10546875 431.6875 C187.79868398 432.83725768 186.48591232 433.98023811 185.16796875 435.1171875 C182.75157049 437.2157532 180.37470976 439.354397 178 441.5 C175.04130249 444.17048344 172.07073528 446.82298058 169.0625 449.4375 C165.83440488 452.24822525 162.66261557 455.115799 159.5 458 C155.71065874 461.45575413 151.88916302 464.8652289 148.01953125 468.23046875 C143.97334911 471.77576954 139.99256813 475.39458999 136 479 C130.72014424 483.76786975 125.42708194 488.51512218 120.0625 493.1875 C117.69035571 495.27211164 115.34443935 497.38428644 113 499.5 C112.16210938 500.2528125 111.32421875 501.005625 110.4609375 501.78125 C108.87548976 503.21066955 107.29679117 504.64762875 105.7265625 506.09375 C105.03304687 506.7228125 104.33953125 507.351875 103.625 508 C102.71621094 508.8353125 102.71621094 508.8353125 101.7890625 509.6875 C99.71593187 511.20839933 98.5858266 511.90315256 96 512 C93.625 510.515625 93.625 510.515625 91 508.25 C90.030625 507.41984375 89.06125 506.5896875 88.0625 505.734375 C84.48966431 502.56816639 80.97598571 499.33758735 77.48022461 496.08666992 C74.26927002 493.11367878 70.97462414 490.30111342 67.5625 487.5625 C62.78458662 483.71954521 58.31005016 479.63168671 53.83837891 475.44384766 C49.62570895 471.52093146 45.23586445 467.88088976 40.74609375 464.27734375 C37.73680948 461.78173531 34.86061346 459.16234857 32 456.5 C28.26672745 453.02580757 24.47628889 449.6993129 20.5 446.5 C15.92870053 442.81921341 11.58329677 438.95917663 7.29370117 434.95849609 C3.78927581 431.69262812 0.18252432 428.60398404 -3.57421875 425.6328125 C-5.52383858 423.40009719 -5.65012585 421.96149291 -6 419 C-5.73352503 416.16894979 -5.38906618 413.42649185 -4.94819641 410.62297058 C-4.8227604 409.78084575 -4.69732438 408.93872093 -4.56808728 408.07107717 C-4.14508542 405.24555568 -3.70984469 402.42205716 -3.2746582 399.59838867 C-2.96841935 397.56995578 -2.66293729 395.5414085 -2.3581543 393.51275635 C-1.52407121 387.97568404 -0.67937614 382.44027566 0.16708732 376.90508437 C1.06325207 371.03241849 1.94952315 365.15825974 2.83686829 359.28425598 C4.53345343 348.063283 6.23869768 336.84364385 7.94710428 325.62446529 C9.65519474 314.40531669 11.35658129 303.18515989 13.05552864 291.96462345 C13.79456345 287.08417735 14.53526688 282.20398891 15.27734184 277.32400417 C16.93236579 266.43334608 18.5793959 255.54181423 20.18331563 244.64349622 C21.05879468 238.69646769 21.94095388 232.75044503 22.82666016 226.80493164 C22.9983976 225.650822 23.17013505 224.49671236 23.34707665 223.3076297 C25.52243981 208.77070782 27.99670729 194.33742087 30.88384283 179.92537093 C39.84419416 134.99936405 39.0288092 103.11018336 21.74505615 60.44494629 C19.41658351 54.64658866 17.29822643 48.76975399 15.16033602 42.89914834 C11.13169313 31.84128379 6.98439049 20.83541609 2.60829163 9.90956116 C2.2627977 9.03659393 1.91730377 8.16362671 1.56134033 7.26420593 C1.10656248 6.13001488 1.10656248 6.13001488 0.6425972 4.97291088 C0 3 0 3 0 0 Z " fill="#005FE4" transform="translate(160,0)"/>
<path d="M0 0 C19.14 0 38.28 0 58 0 C58.33 129.36 58.66 258.72 59 392 C53.61054551 390.9221091 51.59317296 389.1734296 47.875 385.5 C46.71854882 384.39331682 45.55966153 383.28917408 44.3984375 382.1875 C43.53750488 381.36958984 43.53750488 381.36958984 42.65917969 380.53515625 C40.36130183 378.40904442 37.9467735 376.45167857 35.5 374.5 C31.3333379 371.15698041 27.39580188 367.64884863 23.5 364 C18.73911006 359.54125556 13.8353218 355.3620217 8.74609375 351.27734375 C5.20321701 348.33922549 1.84558228 345.21768822 -1.52197266 342.08349609 C-4.73316873 339.11269934 -8.02636841 336.30031679 -11.4375 333.5625 C-16.21008181 329.72383348 -20.68116214 325.64200731 -25.14624023 321.45703125 C-29.46256419 317.43525112 -33.93424174 313.69684228 -38.5625 310.03515625 C-39.366875 309.36355469 -40.17125 308.69195312 -41 308 C-41.88504369 307.29523907 -42.77008738 306.59047813 -43.68195057 305.86436081 C-46 303 -46 303 -46.17103863 299.38847733 C-45.98477224 297.96662758 -45.76756677 296.54862583 -45.52629089 295.1350708 C-45.41541773 294.35081954 -45.30454457 293.56656828 -45.19031161 292.75855184 C-44.94578464 291.05567265 -44.68834109 289.35460943 -44.41951728 287.65539646 C-44.00044755 285.00283282 -43.61615004 282.34733711 -43.240839 279.68825531 C-42.39198506 273.73253466 -41.4863038 267.78596995 -40.5793457 261.83886719 C-40.23542978 259.56609608 -39.89182627 257.29327768 -39.54850769 255.02041626 C-38.6216031 248.8900064 -37.69035621 242.76026343 -36.75828576 236.63063717 C-35.77407032 230.1530085 -34.79390772 223.67476655 -33.8132782 217.19659424 C-32.16219244 206.29215451 -30.50838569 195.38812982 -28.8527832 184.484375 C-27.16650016 173.3785144 -25.48173738 162.27242499 -23.79907227 151.16601562 C-23.69602369 150.48584825 -23.59297512 149.80568087 -23.48680387 149.10490236 C-23.07200651 146.36700539 -22.65722165 143.62910654 -22.24245294 140.89120524 C-19.57341639 123.27282914 -16.90329505 105.65461737 -14.23054504 88.0368042 C-14.04913281 86.84092296 -13.86772057 85.64504173 -13.68081099 84.41292167 C-12.79707193 78.5882197 -11.91262275 72.76362701 -11.02673817 66.93925095 C-9.49486403 56.86553419 -7.9663159 46.79139306 -6.45772654 36.71415877 C-5.80557632 32.35992819 -5.15049227 28.0061415 -4.49508893 23.65239954 C-4.18871015 21.61143565 -3.88381042 19.57024913 -3.58046019 17.52883291 C-3.1674686 14.75004164 -2.74955746 11.97203325 -2.33049011 9.19415283 C-2.2095193 8.37089776 -2.08854849 7.54764268 -1.96391189 6.69944048 C-1.11390524 1.11390524 -1.11390524 1.11390524 0 0 Z " fill="#0081FE" transform="translate(200,120)"/>
<path d="M0 0 C63.36 0 126.72 0 192 0 C189.74991415 10.12538632 189.74991415 10.12538632 188.40625 14.16220093 C187.95209717 15.53734863 187.95209717 15.53734863 187.48876953 16.9402771 C187.16247559 17.91308624 186.83618164 18.88589539 186.5 19.88818359 C185.97768799 21.46300507 185.97768799 21.46300507 185.44482422 23.06964111 C184.30105033 26.51408899 183.15076198 29.95631858 182 33.3984375 C181.20025766 35.79968653 180.40078248 38.20102456 179.6015625 40.60244751 C177.93000786 45.62152409 176.25530267 50.63953843 174.578125 55.65673828 C172.64019798 61.45414845 170.70880354 67.25370457 168.7807312 73.05439889 C166.92138622 78.6476843 165.05698686 84.23927511 163.19042969 89.83015823 C162.39806918 92.20523641 161.60704902 94.58076218 160.81738281 96.95673752 C159.71593097 100.26868898 158.60875095 103.57866975 157.5 106.88818359 C157.17370605 107.87313812 156.84741211 108.85809265 156.51123047 109.87289429 C156.05707764 111.22266357 156.05707764 111.22266357 155.59375 112.59970093 C155.33271484 113.38167532 155.07167969 114.16364971 154.80273438 114.9693203 C154 117 154 117 152 120 C149.98914146 120.36914349 149.98914146 120.36914349 147.46957397 120.36076355 C146.03925087 120.36694954 146.03925087 120.36694954 144.58003235 120.3732605 C143.53058945 120.36247467 142.48114655 120.35168884 141.39990234 120.34057617 C139.74623405 120.34123329 139.74623405 120.34123329 138.05915833 120.34190369 C134.40124026 120.33980727 130.74377587 120.31643555 127.0859375 120.29296875 C124.55531057 120.28737584 122.0246804 120.28310431 119.49404907 120.28010559 C113.50518412 120.26980657 107.51651505 120.24614272 101.52772868 120.21605712 C94.71042281 120.18255111 87.89310921 120.1660367 81.07574153 120.15097082 C67.05040355 120.11959406 53.02521073 120.06680989 39 120 C33.9095649 104.79873098 28.82426459 89.59575559 23.7450943 74.39071941 C21.38670512 67.33103023 19.02663 60.27191303 16.66259766 53.21411133 C14.60245978 47.06357026 12.54547274 40.91198616 10.49228525 34.75912124 C9.40471881 31.50033776 8.31556638 28.24210368 7.22264099 24.98511314 C6.00355924 21.35197299 4.79151232 17.71650831 3.58007812 14.08081055 C3.21539932 12.99755997 2.85072052 11.91430939 2.47499084 10.79823303 C2.14683884 9.80965302 1.81868683 8.821073 1.48059082 7.80253601 C1.19299141 6.94250316 0.905392 6.0824703 0.60907745 5.19637585 C0 3 0 3 0 0 Z " fill="#005FE4" transform="translate(160,0)"/>
<path d="M0 0 C31.02 0 62.04 0 94 0 C91.74991415 10.12538632 91.74991415 10.12538632 90.40625 14.16220093 C89.95209717 15.53734863 89.95209717 15.53734863 89.48876953 16.9402771 C89.16247559 17.91308624 88.83618164 18.88589539 88.5 19.88818359 C87.97768799 21.46300507 87.97768799 21.46300507 87.44482422 23.06964111 C86.30105033 26.51408899 85.15076198 29.95631858 84 33.3984375 C83.20025766 35.79968653 82.40078248 38.20102456 81.6015625 40.60244751 C79.93000786 45.62152409 78.25530267 50.63953843 76.578125 55.65673828 C74.64019798 61.45414845 72.70880354 67.25370457 70.7807312 73.05439889 C68.92138622 78.6476843 67.05698686 84.23927511 65.19042969 89.83015823 C64.39806918 92.20523641 63.60704902 94.58076218 62.81738281 96.95673752 C61.71593097 100.26868898 60.60875095 103.57866975 59.5 106.88818359 C59.17370605 107.87313812 58.84741211 108.85809265 58.51123047 109.87289429 C58.20846191 110.77274048 57.90569336 111.67258667 57.59375 112.59970093 C57.33271484 113.38167532 57.07167969 114.16364971 56.80273438 114.9693203 C56 117 56 117 54 120 C36.18 120 18.36 120 0 120 C0 80.4 0 40.8 0 0 Z " fill="#00317E" transform="translate(258,0)"/>
</svg>
